<svg xmlns="http://www.w3.org/2000/svg" viewBox="0 0 1690.74 1132.25"><defs><style>.cls-1{fill:#fff;}</style></defs><title>Asset 1</title><g id="Layer_2" data-name="Layer 2"><g id="Layer_1-2" data-name="Layer 1"><polygon class="cls-1" points="1238.7 513.3 963.82 513.3 963.82 585.79 1057.28 585.79 1057.28 931.91 1145.24 931.91 1145.24 585.79 1238.7 585.79 1238.7 513.3"/><path class="cls-1" d="M1604.31,525.25c-31.37-20.75-70.88-31.28-117.4-31.28-49.42,0-112.82,6.91-164.8,60.79-38.89,39.59-60.29,96.09-60.29,159.15,0,79.87,33.48,131,61.56,159.77,50,51.31,105.53,58.23,153.22,58.23,44.06,0,100.85-6.47,149.33-56.92,44.46-46.25,64.53-121.5,64.81-176h-202v68.62h105.47l-1.89,7.1c-9,34-30.45,51.94-32.86,53.88-12.78,11.07-36.9,24.44-78.31,24.44-39.22,0-67.3-10.86-91.06-35.22-14-14-37.7-46.13-37.7-102.56,0-42.15,13.6-79.7,38.3-105.73,22.83-24.26,54.14-36.57,93-36.57,26.56,0,49.16,7.11,69.09,21.73,14.37,10.5,27.37,25.73,37,43.27l79.4-42.84c-17-28-40.93-53.84-64.9-69.81"/><path class="cls-1" d="M295.21,882a1427.87,1427.87,0,0,1,107.29-145c16.32-19,33.05-37.72,50.54-55.77,3.57-3.69,7.13-7.39,10.78-11,10.5-10.89,21.69-21.16,32.61-31.67,11.32-10.11,22.43-20.45,34.17-30.13,11.48-10,23.53-19.29,35.46-28.74L584.37,566c6.09-4.58,12.45-8.82,18.66-13.24a887.06,887.06,0,0,1,78-48.3c4.83-2.65,9.72-5.2,14.61-7.76a796.32,796.32,0,0,1,87.48-39.31q33.61-12.71,68.37-22.31a751.77,751.77,0,0,1,182.65-26.79,709.42,709.42,0,0,1,92.31,4.06c30.55,3.5,61,8.62,90.39,17.45-28.5-11.7-58.74-19.86-89.41-26.37a716.54,716.54,0,0,0-93.9-13.08,778.72,778.72,0,0,0-192.8,10.33q-36.72,6.54-73,16.53h0L608.4,0,359.09,652.83h0q-15.21,14-30.07,28.36A1559.54,1559.54,0,0,0,198.79,826.32C122.66,922.83,57.5,1026.07,0,1132.25H160.64c31-68.92,65.55-136.4,104.48-201.57C274.89,914.33,284.86,898.09,295.21,882ZM506.08,537.66l102.32-277,69.07,187h0c-8.36,3.34-16.69,6.78-25,10.39a961.28,961.28,0,0,0-88.59,44.27c-7.13,4.14-14.43,8.13-21.44,12.44l-21.11,13-15.28,10Z"/><path class="cls-1" d="M1126.2,414.2a704.3,704.3,0,0,0-92-2.22,744.76,744.76,0,0,0-180.57,30.16q-34.32,10.16-67.42,23.53A784.45,784.45,0,0,0,699.39,507c-4.2,2.33-8.42,4.62-12.57,7A871.51,871.51,0,0,0,611,563.1c-6,4.48-12.2,8.78-18.11,13.41L575.2,590.35c-11.55,9.54-23.2,19-34.3,29-11.35,9.75-22.06,20.16-33,30.33-10.54,10.56-21.32,20.88-31.43,31.83-13.8,14.31-27,29.14-39.86,44.22Q427,737,417.53,748.47a1404.32,1404.32,0,0,0-102.6,145c-7.58,12.31-14.92,24.75-22.15,37.24-37.74,65.15-71,132.64-100.68,201.57H338.83c20.77-62.46,44.67-123.71,72.51-183.08A1304.1,1304.1,0,0,1,491,804.34c15-23.09,30.54-46,47.35-67.84,8.19-11.17,17-21.7,25.65-32.58,9-10.44,17.82-21.2,27.25-31.31,9.2-10.41,18.94-20.22,28.63-30.25l14.93-14.56c5-4.9,10.22-9.45,15.33-14.21a797.7,797.7,0,0,1,65.15-53.15c1-.73,2-1.43,3-2.15h0a6.93,6.93,0,0,0,.51.86l-.52.37L855.88,931.91H963.82L802,508.13a6.92,6.92,0,0,0-.47-1.8l.21-.12c20.28-10.82,41.17-20.77,62.69-29.68a707.74,707.74,0,0,1,170.41-46.61,684.86,684.86,0,0,1,90.4-6.79c30.42-.14,61.18,1.33,91.58,6.69C1187.26,421.58,1156.74,417.08,1126.2,414.2Z"/></g></g></svg>