<svg xmlns="http://www.w3.org/2000/svg" viewBox="0 0 745.51 717.23"><defs><style>.cls-1{fill:#f2f2f2;}.cls-2{fill:#3f3d56;}.cls-3{fill:#6acfdb;}.cls-4{opacity:0.2;isolation:isolate;}</style></defs><title>Asset 1</title><g id="Layer_2" data-name="Layer 2"><g id="e547938f-82f5-44e4-b157-d028021b2880"><path class="cls-1" d="M358.05,692c-149.6-42.25-307.22-87.57-347-269.64s136.5-530.21,203-389.71c67.05,141.6,239,223.7,347,269.64C889.48,442,741,800.09,358.05,692Z"/><path class="cls-2" d="M557.49,102.49H130.76v614H557.49a21.28,21.28,0,0,0,21.27-21.26h0V123.76a21.27,21.27,0,0,0-21.27-21.27Zm-403.73,603a11,11,0,1,1,11-11,11,11,0,0,1-11,11Zm0-38a11,11,0,1,1,11-11,11,11,0,0,1-11,11Zm0-38a11,11,0,1,1,11-11,11,11,0,0,1-11,11Zm0-38a11,11,0,1,1,11-11,11,11,0,0,1-11,11Zm0-38a11,11,0,1,1,11-11,11,11,0,0,1-11,11Zm0-38a11,11,0,1,1,11-11,11,11,0,0,1-11,11Zm0-38a11,11,0,1,1,11-11,11,11,0,0,1-11,11Zm0-38a11,11,0,1,1,11-11,11,11,0,0,1-11,11Zm0-38a11,11,0,1,1,11-11,11,11,0,0,1-11,11Zm0-38a11,11,0,1,1,11-11,11,11,0,0,1-11,11Zm0-38a11,11,0,1,1,11-11,11,11,0,0,1-11,11Zm0-38a11,11,0,1,1,11-11,11,11,0,0,1-11,11Zm0-38a11,11,0,1,1,11-11,11,11,0,0,1-11,11Zm0-38a11,11,0,1,1,11-11,11,11,0,0,1-11,11Zm0-38a11,11,0,1,1,11-11,11,11,0,0,1-11,11Zm0-38a11,11,0,1,1,11-11,11,11,0,0,1-11,11Z"/><path d="M132.76,503.49c-4.34,0-26-.22-26-4.5,0-3.92,18.36-4.43,24-4.49l0,2c-12.18.14-20.06,1.46-21.79,2.49,1.84,1.1,10.62,2.5,23.78,2.5,12.62,0,21.21-1.29,23.51-2.36-1.05-.37-3.7-1-10.36-1.8l.24-2c11.7,1.41,12.61,2.4,12.61,3.65C158.76,503.27,137.1,503.49,132.76,503.49Z"/><path d="M132.76,512.49c-4.34,0-26-.22-26-4.5,0-3.92,18.36-4.43,24-4.49l0,2c-12.18.14-20.06,1.46-21.79,2.49,1.84,1.1,10.62,2.5,23.78,2.5,12.3,0,20.78-1.23,23.33-2.28-2.28-.61-7.88-1.26-11.13-1.64l-2.05-.24.24-2,2,.24c12.23,1.43,13.57,1.95,13.57,3.41C158.76,512.27,137.1,512.49,132.76,512.49Z"/><path d="M132.76,466.49c-4.34,0-26-.22-26-4.5,0-3.92,18.36-4.43,24-4.49l0,2c-12.18.14-20.06,1.46-21.79,2.49,1.84,1.1,10.62,2.5,23.78,2.5,12.62,0,21.21-1.29,23.51-2.36-1.05-.37-3.7-1-10.36-1.8l.24-2c11.7,1.41,12.61,2.4,12.61,3.65C158.76,466.27,137.1,466.49,132.76,466.49Z"/><path d="M132.76,475.49c-4.34,0-26-.22-26-4.5,0-3.92,18.36-4.43,24-4.49l0,2c-12.18.14-20.06,1.46-21.79,2.49,1.84,1.1,10.62,2.5,23.78,2.5,12.3,0,20.78-1.23,23.33-2.28-2.28-.61-7.88-1.26-11.13-1.64l-2.05-.24.24-2,2,.24c12.23,1.43,13.57,1.95,13.57,3.41C158.76,475.27,137.1,475.49,132.76,475.49Z"/><path d="M132.76,427.49c-4.34,0-26-.22-26-4.5,0-3.92,18.36-4.43,24-4.49l0,2c-12.18.14-20.06,1.46-21.79,2.49,1.84,1.1,10.62,2.5,23.78,2.5,12.62,0,21.21-1.29,23.51-2.36-1.05-.37-3.7-1-10.36-1.8l.24-2c11.7,1.41,12.61,2.4,12.61,3.65C158.76,427.27,137.1,427.49,132.76,427.49Z"/><path d="M132.76,436.49c-4.34,0-26-.22-26-4.5,0-3.92,18.36-4.43,24-4.49l0,2c-12.18.14-20.06,1.46-21.79,2.49,1.84,1.1,10.62,2.5,23.78,2.5,12.3,0,20.78-1.23,23.33-2.28-2.28-.61-7.88-1.26-11.13-1.64l-2.05-.24.24-2,2,.24c12.23,1.43,13.57,1.95,13.57,3.41C158.76,436.27,137.1,436.49,132.76,436.49Z"/><path d="M132.76,389.49c-4.34,0-26-.22-26-4.5,0-3.92,18.36-4.43,24-4.49l0,2c-12.18.14-20.06,1.46-21.79,2.49,1.84,1.1,10.62,2.5,23.78,2.5,12.62,0,21.21-1.29,23.51-2.36-1.05-.37-3.7-1-10.36-1.8l.24-2c11.7,1.41,12.61,2.4,12.61,3.65C158.76,389.27,137.1,389.49,132.76,389.49Z"/><path d="M132.76,398.49c-4.34,0-26-.22-26-4.5,0-3.92,18.36-4.43,24-4.49l0,2c-12.18.14-20.06,1.46-21.79,2.49,1.84,1.1,10.62,2.5,23.78,2.5,12.3,0,20.78-1.23,23.33-2.28-2.28-.61-7.88-1.26-11.13-1.64l-2.05-.24.24-2,2,.24c12.23,1.43,13.57,1.95,13.57,3.41C158.76,398.27,137.1,398.49,132.76,398.49Z"/><path d="M132.76,351.49c-4.34,0-26-.22-26-4.5,0-3.92,18.36-4.43,24-4.49l0,2c-12.18.14-20.06,1.46-21.79,2.49,1.84,1.1,10.62,2.5,23.78,2.5,12.62,0,21.21-1.29,23.51-2.36-1.05-.37-3.7-1-10.36-1.8l.24-2c11.7,1.41,12.61,2.4,12.61,3.65C158.76,351.27,137.1,351.49,132.76,351.49Z"/><path d="M132.76,360.49c-4.34,0-26-.22-26-4.5,0-3.92,18.36-4.43,24-4.49l0,2c-12.18.14-20.06,1.46-21.79,2.49,1.84,1.1,10.62,2.5,23.78,2.5,12.31,0,20.79-1.23,23.33-2.28-2.28-.61-7.89-1.26-11.14-1.64l-2-.24.24-2,2,.24c12.24,1.43,13.58,1.95,13.58,3.41C158.76,360.27,137.1,360.49,132.76,360.49Z"/><path d="M132.76,313.49c-4.34,0-26-.22-26-4.5,0-3.92,18.36-4.43,24-4.49l0,2c-12.18.14-20.06,1.46-21.79,2.49,1.84,1.1,10.62,2.5,23.78,2.5,12.62,0,21.21-1.29,23.51-2.36-1.05-.37-3.7-1-10.36-1.8l.24-2c11.7,1.41,12.61,2.4,12.61,3.65C158.76,313.27,137.1,313.49,132.76,313.49Z"/><path d="M132.76,322.49c-4.34,0-26-.22-26-4.5,0-3.92,18.36-4.43,24-4.49l0,2c-12.18.14-20.06,1.46-21.79,2.49,1.84,1.1,10.62,2.5,23.78,2.5,12.31,0,20.79-1.23,23.33-2.28-2.28-.61-7.89-1.26-11.14-1.64l-2-.24.24-2,2,.24c12.24,1.43,13.58,1.95,13.58,3.41C158.76,322.27,137.1,322.49,132.76,322.49Z"/><path d="M132.76,275.49c-4.34,0-26-.22-26-4.5,0-3.92,18.36-4.43,24-4.49l0,2c-12.18.14-20.06,1.46-21.79,2.49,1.84,1.1,10.62,2.5,23.78,2.5,12.62,0,21.21-1.29,23.51-2.36-1.05-.37-3.7-1-10.36-1.8l.24-2c11.7,1.41,12.61,2.4,12.61,3.65C158.76,275.27,137.1,275.49,132.76,275.49Z"/><path d="M132.76,284.49c-4.34,0-26-.22-26-4.5,0-3.92,18.36-4.43,24-4.49l0,2c-12.18.14-20.06,1.46-21.79,2.49,1.84,1.1,10.62,2.5,23.78,2.5,12.31,0,20.79-1.23,23.33-2.28-2.28-.61-7.89-1.26-11.14-1.64l-2-.24.24-2,2,.24c12.24,1.43,13.58,1.95,13.58,3.41C158.76,284.27,137.1,284.49,132.76,284.49Z"/><path d="M132.76,237.49c-4.34,0-26-.22-26-4.5,0-3.92,18.36-4.43,24-4.49l0,2c-12.18.14-20.06,1.46-21.79,2.49,1.84,1.1,10.62,2.5,23.78,2.5,12.62,0,21.21-1.29,23.51-2.36-1.05-.37-3.7-1-10.36-1.8l.24-2c11.7,1.41,12.61,2.4,12.61,3.65C158.76,237.27,137.1,237.49,132.76,237.49Z"/><path d="M132.76,246.49c-4.34,0-26-.22-26-4.5,0-3.92,18.36-4.43,24-4.49l0,2c-12.18.14-20.06,1.46-21.79,2.49,1.84,1.1,10.62,2.5,23.78,2.5,12.31,0,20.79-1.23,23.33-2.28-2.28-.61-7.89-1.26-11.14-1.64l-2-.24.24-2,2,.24c12.24,1.43,13.58,1.95,13.58,3.41C158.76,246.27,137.1,246.49,132.76,246.49Z"/><path d="M132.76,199.49c-4.34,0-26-.22-26-4.5,0-3.92,18.36-4.43,24-4.49l0,2c-12.18.14-20.06,1.46-21.79,2.49,1.84,1.1,10.62,2.5,23.78,2.5,12.62,0,21.21-1.29,23.51-2.36-1.05-.37-3.7-1-10.36-1.8l.24-2c11.7,1.41,12.61,2.4,12.61,3.65C158.76,199.27,137.1,199.49,132.76,199.49Z"/><path d="M132.76,208.49c-4.34,0-26-.22-26-4.5,0-3.92,18.36-4.43,24-4.49l0,2c-12.18.14-20.06,1.46-21.79,2.49,1.84,1.1,10.62,2.5,23.78,2.5,12.31,0,20.79-1.23,23.33-2.28-2.28-.61-7.89-1.26-11.14-1.64l-2-.24.24-2,2,.24c12.24,1.43,13.58,1.95,13.58,3.41C158.76,208.27,137.1,208.49,132.76,208.49Z"/><path d="M132.76,161.49c-4.34,0-26-.22-26-4.5,0-3.92,18.36-4.43,24-4.49l0,2c-12.18.14-20.06,1.46-21.79,2.49,1.84,1.1,10.62,2.5,23.78,2.5,12.62,0,21.21-1.29,23.51-2.36-1.05-.37-3.7-1-10.36-1.8l.24-2c11.7,1.41,12.61,2.4,12.61,3.65C158.76,161.27,137.1,161.49,132.76,161.49Z"/><path d="M132.76,170.49c-4.34,0-26-.22-26-4.5,0-3.92,18.36-4.43,24-4.49l0,2c-12.18.14-20.06,1.46-21.79,2.49,1.84,1.1,10.62,2.5,23.78,2.5,12.31,0,20.79-1.23,23.33-2.28-2.28-.61-7.89-1.26-11.14-1.64l-2-.24.24-2,2,.24c12.24,1.43,13.58,1.95,13.58,3.41C158.76,170.27,137.1,170.49,132.76,170.49Z"/><path d="M132.76,123.49c-4.34,0-26-.22-26-4.5,0-3.92,18.36-4.43,24-4.49l0,2c-12.18.14-20.06,1.46-21.79,2.49,1.84,1.1,10.62,2.5,23.78,2.5,12.62,0,21.21-1.29,23.51-2.36-1.05-.37-3.7-1-10.36-1.8l.24-2c11.7,1.41,12.61,2.4,12.61,3.65C158.76,123.27,137.1,123.49,132.76,123.49Z"/><path d="M132.76,132.49c-4.34,0-26-.22-26-4.5,0-3.92,18.36-4.43,24-4.49l0,2c-12.18.14-20.06,1.46-21.79,2.49,1.84,1.1,10.62,2.5,23.78,2.5,12.31,0,20.79-1.23,23.33-2.28-2.28-.61-7.89-1.26-11.14-1.64l-2-.24.24-2,2,.24c12.24,1.43,13.58,2,13.58,3.41C158.76,132.27,137.1,132.49,132.76,132.49Z"/><path d="M132.76,542.49c-4.34,0-26-.22-26-4.5,0-3.92,18.36-4.43,24-4.49l0,2c-12.18.14-20.06,1.46-21.79,2.49,1.84,1.1,10.62,2.5,23.78,2.5,12.62,0,21.21-1.29,23.51-2.36-1.05-.37-3.7-1-10.36-1.8l.24-2c11.7,1.41,12.61,2.4,12.61,3.65C158.76,542.27,137.1,542.49,132.76,542.49Z"/><path d="M132.76,551.49c-4.34,0-26-.22-26-4.5,0-3.92,18.36-4.43,24-4.49l0,2c-12.18.14-20.06,1.46-21.79,2.49,1.84,1.1,10.62,2.5,23.78,2.5,12.3,0,20.78-1.23,23.33-2.28-2.28-.61-7.88-1.26-11.13-1.64l-2.05-.24.24-2,2,.24c12.23,1.43,13.57,1.95,13.57,3.41C158.76,551.27,137.1,551.49,132.76,551.49Z"/><path d="M132.76,579.49c-4.34,0-26-.22-26-4.5,0-3.92,18.36-4.43,24-4.49l0,2c-12.18.14-20.06,1.46-21.79,2.49,1.84,1.1,10.62,2.5,23.78,2.5,12.62,0,21.21-1.29,23.51-2.36-1.05-.37-3.7-1-10.36-1.8l.24-2c11.7,1.41,12.61,2.4,12.61,3.65C158.76,579.27,137.1,579.49,132.76,579.49Z"/><path d="M132.76,588.49c-4.34,0-26-.22-26-4.5,0-3.92,18.36-4.43,24-4.49l0,2c-12.18.14-20.06,1.46-21.79,2.49,1.84,1.1,10.62,2.5,23.78,2.5,12.3,0,20.78-1.23,23.33-2.28-2.28-.61-7.88-1.26-11.13-1.64l-2.05-.24.24-2,2,.24c12.23,1.43,13.57,1.95,13.57,3.41C158.76,588.27,137.1,588.49,132.76,588.49Z"/><path d="M132.76,618.49c-4.34,0-26-.22-26-4.5,0-3.92,18.36-4.43,24-4.49l0,2c-12.18.14-20.06,1.46-21.79,2.49,1.84,1.1,10.62,2.5,23.78,2.5,12.62,0,21.21-1.29,23.51-2.36-1.05-.37-3.7-1-10.36-1.8l.24-2c11.7,1.41,12.61,2.4,12.61,3.65C158.76,618.27,137.1,618.49,132.76,618.49Z"/><path d="M132.76,627.49c-4.34,0-26-.22-26-4.5,0-3.92,18.36-4.43,24-4.49l0,2c-12.18.14-20.06,1.46-21.79,2.49,1.84,1.1,10.62,2.5,23.78,2.5,12.3,0,20.78-1.23,23.33-2.28-2.28-.61-7.88-1.26-11.13-1.64l-2.05-.24.24-2,2,.24c12.23,1.43,13.57,1.95,13.57,3.41C158.76,627.27,137.1,627.49,132.76,627.49Z"/><path d="M132.76,655.49c-4.34,0-26-.22-26-4.5,0-3.92,18.36-4.43,24-4.49l0,2c-12.18.14-20.06,1.46-21.79,2.49,1.84,1.1,10.62,2.5,23.78,2.5,12.62,0,21.21-1.29,23.51-2.36-1.05-.37-3.7-1-10.36-1.8l.24-2c11.7,1.41,12.61,2.4,12.61,3.65C158.76,655.27,137.1,655.49,132.76,655.49Z"/><path d="M132.76,664.49c-4.34,0-26-.22-26-4.5,0-3.92,18.36-4.43,24-4.49l0,2c-12.18.14-20.06,1.46-21.79,2.49,1.84,1.1,10.62,2.5,23.78,2.5,12.3,0,20.78-1.23,23.33-2.28-2.28-.61-7.88-1.26-11.13-1.64l-2.05-.24.24-2,2,.24c12.23,1.43,13.57,1.95,13.57,3.41C158.76,664.27,137.1,664.49,132.76,664.49Z"/><path d="M132.76,693.49c-4.34,0-26-.22-26-4.5,0-3.92,18.36-4.43,24-4.49l0,2c-12.18.14-20.06,1.46-21.79,2.49,1.84,1.1,10.62,2.5,23.78,2.5,12.62,0,21.21-1.29,23.51-2.36-1.05-.37-3.7-1-10.36-1.8l.24-2c11.7,1.41,12.61,2.4,12.61,3.65C158.76,693.27,137.1,693.49,132.76,693.49Z"/><path d="M132.76,702.49c-4.34,0-26-.22-26-4.5,0-3.92,18.36-4.43,24-4.49l0,2c-12.18.14-20.06,1.46-21.79,2.49,1.84,1.1,10.62,2.5,23.78,2.5,12.3,0,20.78-1.23,23.33-2.28-2.28-.61-7.88-1.26-11.13-1.64l-2.05-.24.24-2,2,.24c12.23,1.43,13.57,1.95,13.57,3.41C158.76,702.27,137.1,702.49,132.76,702.49Z"/><rect class="cls-2" y="715.75" width="745.51" height="1.48"/><path class="cls-2" d="M678.77,326.49a12,12,0,1,1,12-12A12,12,0,0,1,678.77,326.49Zm0-22a10,10,0,1,0,10,10A10,10,0,0,0,678.77,304.49Z"/><path class="cls-2" d="M36.26,436h-26V410h26Zm-24-2h22V412h-22Z"/><path class="cls-2" d="M284.24,70.35,266.9,51l19.38-17.34L303.61,53ZM269.72,51.13l14.67,16.39,16.4-14.67L286.12,36.46Z"/><rect class="cls-3" x="247.26" y="265.99" width="251" height="114"/><path class="cls-1" d="M273.09,342.4a138.62,138.62,0,0,1,50-5c17.44,1.48,34.3,6.71,51.52,9.57a303.91,303.91,0,0,0,47.91,4.14c13.87.1,30.84,1.2,43.13-6.39,1.64-1,.13-3.6-1.52-2.59-7.14,4.41-15.29,5.12-23.48,5.56s-16.53.55-24.82.31A301.14,301.14,0,0,1,366,342.34c-15.51-3.09-30.82-7.34-46.68-8.24a141.2,141.2,0,0,0-47.06,5.41,1.5,1.5,0,0,0,.79,2.89Z"/><path class="cls-1" d="M273.09,311.4a138.62,138.62,0,0,1,50-5c17.44,1.48,34.3,6.71,51.52,9.57a303.91,303.91,0,0,0,47.91,4.14c13.87.1,30.84,1.2,43.13-6.39,1.64-1,.13-3.6-1.52-2.59-7.14,4.41-15.29,5.12-23.48,5.56s-16.53.55-24.82.31A301.14,301.14,0,0,1,366,311.34c-15.51-3.09-30.82-7.34-46.68-8.24a141.2,141.2,0,0,0-47.06,5.41,1.5,1.5,0,0,0,.79,2.89Z"/><path class="cls-4" d="M578.76,576.1V695.22a21.27,21.27,0,0,1-21.27,21.27H396.65Z"/><path class="cls-4" d="M578.76,123.76V237.57L366.43,102.49H557.49a21.28,21.28,0,0,1,21.27,21.26Z"/></g></g></svg>