<svg xmlns="http://www.w3.org/2000/svg" viewBox="0 0 518.97 543.57"><defs><style>.cls-1{fill:#f2f2f2;}.cls-2{fill:#54a2a8;}.cls-3{fill:#3f3d56;}.cls-4{fill:#fff;}.cls-5{fill:#07e58a;}</style></defs><title>Asset 2</title><g id="Layer_2" data-name="Layer 2"><g id="a8c3e3ad-ef53-4a9e-a620-842318013c49"><rect class="cls-1" x="137.12" y="-2.9" width="254" height="442" transform="translate(-54.57 343.65) rotate(-61.05)"/><rect class="cls-2" y="181.57" width="147" height="193"/><rect class="cls-3" x="40.5" y="212.07" width="66" height="66"/><rect class="cls-3" x="15.5" y="292.07" width="116" height="8"/><rect class="cls-3" x="15.5" y="314.07" width="116" height="8"/><rect class="cls-3" x="15.5" y="336.07" width="116" height="8"/><rect class="cls-2" x="312" y="350.57" width="147" height="193"/><rect class="cls-3" x="333.5" y="376.07" width="104" height="12"/><rect class="cls-3" x="333.5" y="402.07" width="104" height="12"/><rect class="cls-3" x="333.5" y="428.07" width="104" height="12"/><rect class="cls-3" x="333.5" y="454.07" width="104" height="12"/><rect class="cls-3" x="333.5" y="480.07" width="104" height="12"/><rect class="cls-3" x="333.5" y="506.07" width="104" height="12"/><rect class="cls-2" x="269" y="25.57" width="147" height="193"/><rect class="cls-3" x="290.5" y="90.07" width="104" height="12"/><rect class="cls-3" x="290.5" y="116.07" width="104" height="12"/><rect class="cls-3" x="290.5" y="142.07" width="104" height="12"/><ellipse class="cls-4" cx="413.15" cy="25.36" rx="17.75" ry="17.78"/><path class="cls-5" d="M413.15,4.55a21.22,21.22,0,1,0,21.22,21.22h0A21.27,21.27,0,0,0,413.15,4.55ZM408.8,37.08,397.93,26.2,401,23.15,408.81,31l16.53-16.54,3.05,3.05L408.8,37.08Z"/><ellipse class="cls-4" cx="459.15" cy="346.36" rx="17.75" ry="17.78"/><path class="cls-5" d="M459.15,325.55a21.22,21.22,0,1,0,21.22,21.22A21.22,21.22,0,0,0,459.15,325.55Zm-4.35,32.53L443.93,347.2l3.05-3.05,7.83,7.84,16.53-16.54,3.05,3.05L454.8,358.08Z"/><ellipse class="cls-4" cx="147.15" cy="179.36" rx="17.75" ry="17.78"/><path class="cls-5" d="M147.15,158.55a21.22,21.22,0,1,0,21.22,21.22h0A21.27,21.27,0,0,0,147.15,158.55Zm-4.35,32.53L131.93,180.2l3-3,7.83,7.84,16.53-16.54,3,3.05L142.8,191.08Z"/></g></g></svg>